<mxfile host="app.diagrams.net" modified="2023-06-08T13:53:16.374Z" agent="Mozilla/5.0 (X11; Linux x86_64) AppleWebKit/537.36 (KHTML, like Gecko) Chrome/110.0.0.0 Safari/537.36" etag="ha5TEXjmCVXZweLQrsMO" version="21.3.7" type="device">
  <diagram name="Страница 1" id="bHYNRlSTIzHRA6oqRkjn">
    <mxGraphModel dx="1304" dy="788" grid="1" gridSize="10" guides="1" tooltips="1" connect="1" arrows="1" fold="1" page="1" pageScale="1" pageWidth="1300" pageHeight="90" math="0" shadow="0">
      <root>
        <mxCell id="0" />
        <mxCell id="1" parent="0" />
        <mxCell id="8-j4BtTnx-JnqvVjRiaJ-2" value="Пространство ядра" style="text;html=1;strokeColor=none;fillColor=none;align=center;verticalAlign=middle;whiteSpace=wrap;rounded=0;fontFamily=Times New Roman;fontSize=20;" parent="1" vertex="1">
          <mxGeometry x="1080" y="20" width="180" height="30" as="geometry" />
        </mxCell>
        <mxCell id="8-j4BtTnx-JnqvVjRiaJ-4" value="Модуль zram" style="text;html=1;strokeColor=none;fillColor=none;align=center;verticalAlign=middle;whiteSpace=wrap;rounded=0;fontFamily=Times New Roman;fontSize=20;" parent="1" vertex="1">
          <mxGeometry x="1120" y="70" width="140" height="30" as="geometry" />
        </mxCell>
        <mxCell id="x7w2cqrkdolhqeWz1TXs-3" style="edgeStyle=orthogonalEdgeStyle;rounded=0;orthogonalLoop=1;jettySize=auto;html=1;exitX=1;exitY=0.5;exitDx=0;exitDy=0;entryX=0;entryY=0.5;entryDx=0;entryDy=0;dashed=1;" parent="1" source="8-j4BtTnx-JnqvVjRiaJ-14" target="8-j4BtTnx-JnqvVjRiaJ-41" edge="1">
          <mxGeometry relative="1" as="geometry" />
        </mxCell>
        <mxCell id="x7w2cqrkdolhqeWz1TXs-7" style="edgeStyle=orthogonalEdgeStyle;rounded=0;orthogonalLoop=1;jettySize=auto;html=1;exitX=0.5;exitY=0;exitDx=0;exitDy=0;entryX=0;entryY=0.5;entryDx=0;entryDy=0;dashed=1;" parent="1" source="8-j4BtTnx-JnqvVjRiaJ-14" target="8-j4BtTnx-JnqvVjRiaJ-22" edge="1">
          <mxGeometry relative="1" as="geometry" />
        </mxCell>
        <mxCell id="8-j4BtTnx-JnqvVjRiaJ-14" value="Вычисление информационной энтропии" style="rounded=0;whiteSpace=wrap;html=1;fontFamily=Times New Roman;fontSize=20;labelBackgroundColor=none;fillColor=#CCCCCC;fontColor=#333333;strokeColor=#666666;" parent="1" vertex="1">
          <mxGeometry x="258.99999999999994" y="231" width="160" height="80" as="geometry" />
        </mxCell>
        <mxCell id="8-j4BtTnx-JnqvVjRiaJ-17" value="" style="endArrow=none;html=1;rounded=0;" parent="1" edge="1">
          <mxGeometry width="50" height="50" relative="1" as="geometry">
            <mxPoint x="1270" y="10" as="sourcePoint" />
            <mxPoint x="10" y="10" as="targetPoint" />
          </mxGeometry>
        </mxCell>
        <mxCell id="x7w2cqrkdolhqeWz1TXs-2" style="edgeStyle=orthogonalEdgeStyle;rounded=0;orthogonalLoop=1;jettySize=auto;html=1;exitX=1;exitY=0.5;exitDx=0;exitDy=0;entryX=0;entryY=0.5;entryDx=0;entryDy=0;dashed=1;" parent="1" source="8-j4BtTnx-JnqvVjRiaJ-21" target="8-j4BtTnx-JnqvVjRiaJ-14" edge="1">
          <mxGeometry relative="1" as="geometry" />
        </mxCell>
        <mxCell id="x7w2cqrkdolhqeWz1TXs-9" style="edgeStyle=orthogonalEdgeStyle;rounded=0;orthogonalLoop=1;jettySize=auto;html=1;exitX=0.5;exitY=1;exitDx=0;exitDy=0;entryX=0.5;entryY=1;entryDx=0;entryDy=0;dashed=1;" parent="1" source="8-j4BtTnx-JnqvVjRiaJ-21" target="8-j4BtTnx-JnqvVjRiaJ-26" edge="1">
          <mxGeometry relative="1" as="geometry" />
        </mxCell>
        <mxCell id="8-j4BtTnx-JnqvVjRiaJ-21" value="Проверка повторяющихся&lt;br style=&quot;font-size: 20px;&quot;&gt;данных" style="rounded=0;whiteSpace=wrap;html=1;fontFamily=Times New Roman;fontSize=20;" parent="1" vertex="1">
          <mxGeometry x="59" y="231" width="160" height="80" as="geometry" />
        </mxCell>
        <mxCell id="x7w2cqrkdolhqeWz1TXs-8" style="edgeStyle=orthogonalEdgeStyle;rounded=0;orthogonalLoop=1;jettySize=auto;html=1;exitX=1;exitY=0.5;exitDx=0;exitDy=0;entryX=0.5;entryY=0;entryDx=0;entryDy=0;" parent="1" source="8-j4BtTnx-JnqvVjRiaJ-22" target="8-j4BtTnx-JnqvVjRiaJ-41" edge="1">
          <mxGeometry relative="1" as="geometry" />
        </mxCell>
        <mxCell id="8-j4BtTnx-JnqvVjRiaJ-22" value="Сжатие данных" style="rounded=0;whiteSpace=wrap;html=1;fontFamily=Times New Roman;fontSize=20;" parent="1" vertex="1">
          <mxGeometry x="399" y="91" width="80" height="80" as="geometry" />
        </mxCell>
        <mxCell id="x7w2cqrkdolhqeWz1TXs-5" style="edgeStyle=orthogonalEdgeStyle;rounded=0;orthogonalLoop=1;jettySize=auto;html=1;exitX=1;exitY=0.5;exitDx=0;exitDy=0;entryX=0;entryY=0.5;entryDx=0;entryDy=0;" parent="1" source="8-j4BtTnx-JnqvVjRiaJ-24" target="8-j4BtTnx-JnqvVjRiaJ-26" edge="1">
          <mxGeometry relative="1" as="geometry" />
        </mxCell>
        <mxCell id="8-j4BtTnx-JnqvVjRiaJ-24" value="Копирование&lt;br style=&quot;font-size: 20px;&quot;&gt;данных" style="rounded=0;whiteSpace=wrap;html=1;fontFamily=Times New Roman;fontSize=20;" parent="1" vertex="1">
          <mxGeometry x="659" y="231" width="160" height="80" as="geometry" />
        </mxCell>
        <mxCell id="8-j4BtTnx-JnqvVjRiaJ-25" value="Обновление статистики" style="rounded=0;whiteSpace=wrap;html=1;fontFamily=Times New Roman;fontSize=20;" parent="1" vertex="1">
          <mxGeometry x="1059" y="231" width="160" height="80" as="geometry" />
        </mxCell>
        <mxCell id="x7w2cqrkdolhqeWz1TXs-6" style="edgeStyle=orthogonalEdgeStyle;rounded=0;orthogonalLoop=1;jettySize=auto;html=1;exitX=1;exitY=0.5;exitDx=0;exitDy=0;entryX=0;entryY=0.5;entryDx=0;entryDy=0;" parent="1" source="8-j4BtTnx-JnqvVjRiaJ-26" target="8-j4BtTnx-JnqvVjRiaJ-25" edge="1">
          <mxGeometry relative="1" as="geometry" />
        </mxCell>
        <mxCell id="8-j4BtTnx-JnqvVjRiaJ-26" value="Освобождение&lt;br style=&quot;font-size: 20px;&quot;&gt;ресурсов" style="rounded=0;whiteSpace=wrap;html=1;fontFamily=Times New Roman;fontSize=20;" parent="1" vertex="1">
          <mxGeometry x="859" y="231" width="160" height="80" as="geometry" />
        </mxCell>
        <mxCell id="x7w2cqrkdolhqeWz1TXs-4" style="edgeStyle=orthogonalEdgeStyle;rounded=0;orthogonalLoop=1;jettySize=auto;html=1;exitX=1;exitY=0.5;exitDx=0;exitDy=0;entryX=0;entryY=0.5;entryDx=0;entryDy=0;" parent="1" source="8-j4BtTnx-JnqvVjRiaJ-41" target="8-j4BtTnx-JnqvVjRiaJ-24" edge="1">
          <mxGeometry relative="1" as="geometry" />
        </mxCell>
        <mxCell id="8-j4BtTnx-JnqvVjRiaJ-41" value="Выделение &lt;br style=&quot;font-size: 20px;&quot;&gt;памяти под сжатые данные" style="rounded=0;whiteSpace=wrap;html=1;fontFamily=Times New Roman;fontSize=20;" parent="1" vertex="1">
          <mxGeometry x="458.99999999999994" y="231" width="160" height="80" as="geometry" />
        </mxCell>
        <mxCell id="0QxBdEduHU2mTVZzbe1w-7" value="" style="endArrow=none;dashed=1;html=1;rounded=0;endSize=6;strokeWidth=1;dashPattern=12 12;" parent="1" edge="1">
          <mxGeometry width="50" height="50" relative="1" as="geometry">
            <mxPoint x="1260" y="70" as="sourcePoint" />
            <mxPoint x="20" y="70" as="targetPoint" />
          </mxGeometry>
        </mxCell>
        <mxCell id="0QxBdEduHU2mTVZzbe1w-8" value="" style="endArrow=none;dashed=1;html=1;rounded=0;endSize=6;strokeWidth=1;dashPattern=12 12;" parent="1" edge="1">
          <mxGeometry width="50" height="50" relative="1" as="geometry">
            <mxPoint x="1260" y="350" as="sourcePoint" />
            <mxPoint x="1260" y="70" as="targetPoint" />
          </mxGeometry>
        </mxCell>
        <mxCell id="x7w2cqrkdolhqeWz1TXs-14" value="" style="endArrow=none;dashed=1;html=1;rounded=0;endSize=6;strokeWidth=1;dashPattern=12 12;" parent="1" edge="1">
          <mxGeometry width="50" height="50" relative="1" as="geometry">
            <mxPoint x="20" y="350" as="sourcePoint" />
            <mxPoint x="20" y="70" as="targetPoint" />
          </mxGeometry>
        </mxCell>
        <mxCell id="x7w2cqrkdolhqeWz1TXs-15" value="" style="endArrow=none;dashed=1;html=1;rounded=0;endSize=6;strokeWidth=1;dashPattern=12 12;" parent="1" edge="1">
          <mxGeometry width="50" height="50" relative="1" as="geometry">
            <mxPoint x="1260" y="350" as="sourcePoint" />
            <mxPoint x="20" y="350" as="targetPoint" />
          </mxGeometry>
        </mxCell>
      </root>
    </mxGraphModel>
  </diagram>
</mxfile>
